<svg width="1000" height="1000" viewBox="0 0 1000 1000" fill="none" xmlns="http://www.w3.org/2000/svg">
<path d="M551.479 85C322.281 85 136.256 270.802 136.256 500C136.256 729.199 322.281 915 551.479 915V803.874H551.469C383.572 803.874 247.474 667.773 247.474 499.881C247.474 331.989 383.577 195.887 551.469 195.887H551.479V85Z" fill="#5F73F4"/>
<path d="M551.479 305.451H551.469C444.254 305.451 357.039 392.679 357.039 499.881C357.039 607.083 444.258 694.31 551.469 694.31H551.479V305.451Z" fill="#5F73F4"/>
<path fill-rule="evenodd" clip-rule="evenodd" d="M551.479 803.874C667.23 803.87 767.858 739.168 819.2 643.968L722.641 592.008C689.753 652.861 625.35 694.306 551.479 694.31V803.874ZM551.479 305.451C625.35 305.455 689.757 346.9 722.645 407.756L819.219 355.793C767.854 260.593 667.227 195.89 551.479 195.886V305.451Z" fill="#141D29"/>
</svg>
