
<svg xmlns="http://www.w3.org/2000/svg" xmlns:xlink="http://www.w3.org/1999/xlink" id="Layer_1" x="0px" y="0px" viewBox="0 0 100 100" style="enable-background:new 0 0 100 100;" xml:space="preserve"> <style type="text/css"> .st0{fill:#FFFFFF;} </style> <g transform="translate(0.000000,1280.000000) scale(0.100000,-0.100000)"> <path class="st0" d="M516,12118.1c0.9,0.1,33.4-3.4,72.2-7.9s70.6-8.1,70.6-8.1c0.1,0.1-2.5,8.9-8.6,28.7 c-3.5,11.6-3.9,13.1-3.9,16.9c0,3.5,0.2,4.7,1.3,7.1c0.7,1.5,2.2,3.8,3.3,5c1.1,1.2,33.8,28.1,72.8,59.7 c38.9,31.6,70.6,57.7,70.4,57.9c-0.1,0.1-6.9,3.3-15,7.1c-8.1,3.8-15.6,7.3-16.7,7.9c-5,2.5-6.7,6-5.7,12.2 c0.6,4,2.3,10.1,22.6,84.2c1.5,5.4,2.6,10,2.5,10.1s-16.8-3.3-37.2-7.6c-49.2-10.4-46.4-9.9-49.5-9.2c-3.1,0.6-6.5,2.8-8,5.1 c-0.7,0.9-3.4,9.5-6.6,20.7c-3,10.5-5.5,19.2-5.6,19.3s-15.4-16.9-34-37.8c-36.2-40.7-36.1-40.6-41.9-41.8c-3.5-0.7-6.3,0-8.7,2.4 c-3.6,3.6-4.3,9.7-2.2,21c1,5.4,19,101.3,25.9,137.6c0.9,4.8,1.5,8.8,1.4,8.8c-0.1,0-9.5-4.8-20.8-10.7 c-22.5-11.7-25.9-13-31.4-12.6c-3.6,0.3-6.3,1.6-8.8,4.2c-1.6,1.6-19.8,35.2-51.7,95.2c-1.2,2.2-2.3,4.1-2.5,4.1s-6.4-11.5-14-25.5 c-7.5-14.1-19.2-36-26-48.7c-13.5-25.2-14.5-26.6-19.2-28.4c-6.7-2.5-10-1.4-35.2,11.7c-11.3,5.9-20.7,10.7-20.8,10.7 c-0.1,0,0.5-3.9,1.4-8.6c2.5-13.3,21.3-113.5,24.4-129.7c2.9-15.6,3.2-20.1,1.9-24.7c-1.6-5.3-6.1-8.1-11.4-7 c-5.7,1.2-5.6,1.1-41.9,41.8c-18.6,20.9-33.9,37.9-34,37.8c-0.1-0.1-2.6-8.8-5.6-19.3c-3.2-11.2-5.9-19.8-6.6-20.7 c-1.5-2.3-4.9-4.5-8-5.1c-3.1-0.6-0.3-1.1-49.5,9.2c-20.4,4.3-37.1,7.7-37.2,7.6c-0.1-0.1,1-4.7,2.5-10.1 c20.3-74.1,22-80.2,22.6-84.2c1-6.1-0.7-9.7-5.7-12.2c-1.1-0.5-8.6-4.1-16.7-7.9s-14.8-7-15-7.1c-0.2-0.1,31.5-26.2,70.4-57.9 c38.9-31.6,71.7-58.5,72.8-59.7c1.1-1.2,2.6-3.4,3.3-5c1.1-2.4,1.3-3.5,1.3-7.1c0-3.8-0.4-5.4-3.9-16.9 c-6.1-19.8-8.7-28.6-8.6-28.7c0,0,31.8,3.6,70.6,8.1s71.3,8.1,72.2,7.9"></path> </g> <path class="st0" d="M50,67.2c-0.9,0-1.5,0.7-1.5,1.5v11.3c0,0.9,0.7,1.5,1.5,1.5c0.8,0,1.5-0.7,1.5-1.5V68.8 C51.5,67.9,50.8,67.2,50,67.2z"></path> </svg> 