
<svg xmlns="http://www.w3.org/2000/svg" xmlns:xlink="http://www.w3.org/1999/xlink" id="Layer_1" x="0px" y="0px" viewBox="0 0 100 100" style="enable-background:new 0 0 100 100;" xml:space="preserve"> <style type="text/css"> .st0{fill:none;stroke:#FFFFFF;stroke-width:2.3;stroke-linecap:round;stroke-linejoin:round;stroke-miterlimit:10;} .st1{fill:#FFFFFF;} </style> <g> <path class="st0" d="M-83.1,45.2c2.4-1.6,4.7-3.1,5.5-5.1c0.9-2.2,0.3-5-0.3-7.8c-0.5-2.6-1.1-5.5-0.1-6.5c1-1,4-0.4,6.5,0.1 c2.8,0.6,5.6,1.1,7.8,0.2c2.1-0.9,3.5-3.1,5.1-5.5c1.5-2.3,3.2-4.8,4.8-4.8c1.6,0,3.3,2.6,4.8,4.8c1.6,2.4,3.1,4.7,5.1,5.5 c2.2,0.9,5,0.3,7.8-0.2c2.6-0.5,5.5-1.1,6.5-0.1c1,1,0.4,4-0.1,6.5c-0.6,2.8-1.1,5.6-0.2,7.8c0.9,2.1,3.1,3.5,5.5,5.1 c2.3,1.5,4.8,3.2,4.8,4.8c0,1.6-2.6,3.3-4.8,4.8c-2.4,1.6-4.7,3.1-5.5,5.1c-0.9,2.2-0.3,5,0.2,7.8c0.5,2.6,1.1,5.5,0.1,6.5 c-1,1-4,0.4-6.5-0.1c-2.8-0.6-5.6-1.1-7.8-0.2c-2.1,0.9-3.5,3.1-5.1,5.5c-1.5,2.3-3.2,4.8-4.8,4.8c-1.6,0-3.3-2.6-4.8-4.8 c-1.6-2.4-3.1-4.7-5.1-5.5c-0.8-0.3-1.7-0.5-2.7-0.5c-1.6,0-3.4,0.4-5.1,0.7c-2.6,0.5-5.5,1.1-6.5,0.1c-1-1-0.4-4,0.1-6.5 c0.6-2.8,1.1-5.6,0.3-7.8c-0.9-2.1-3.1-3.5-5.5-5.1c-2.3-1.5-4.8-3.2-4.8-4.8C-87.9,48.4-85.3,46.7-83.1,45.2z"></path> <path class="st0" d="M-53.7,34.1c8.7,0,15.8,7.1,15.8,15.9c0,8.7-7.1,15.9-15.8,15.9c-8.7,0-15.9-7.1-15.9-15.9 C-69.5,41.3-62.4,34.1-53.7,34.1z"></path> </g> <path class="st1" d="M48.5,31.2V19.9c0-0.8,0.7-1.5,1.5-1.5c0.8,0,1.5,0.7,1.5,1.5v11.3c0,0.8-0.7,1.5-1.5,1.5 C49.1,32.8,48.5,32.1,48.5,31.2z M50,67.2c-0.9,0-1.5,0.7-1.5,1.5v11.3c0,0.9,0.7,1.5,1.5,1.5c0.8,0,1.5-0.7,1.5-1.5V68.8 C51.5,67.9,50.8,67.2,50,67.2z M80.1,48.5H68.8c-0.9,0-1.5,0.7-1.5,1.5c0,0.8,0.7,1.5,1.5,1.5h11.3c0.9,0,1.5-0.7,1.5-1.5 C81.6,49.2,80.9,48.5,80.1,48.5z M32.8,50c0-0.9-0.7-1.5-1.5-1.5H19.9c-0.8,0-1.5,0.7-1.5,1.5c0,0.8,0.7,1.5,1.5,1.5h11.3 C32.1,51.5,32.8,50.9,32.8,50z M59.1,35.3c0.3,0.2,0.5,0.2,0.8,0.2c0.5,0,1-0.3,1.3-0.7l5.9-9.6c0.4-0.7,0.2-1.7-0.5-2.1 c-0.7-0.4-1.7-0.2-2.1,0.5l-5.9,9.6C58.1,33.9,58.3,34.9,59.1,35.3z M40.9,64.7c-0.7-0.4-1.7-0.2-2.1,0.5l-5.9,9.6 c-0.4,0.7-0.2,1.7,0.5,2.1c0.3,0.2,0.5,0.2,0.8,0.2c0.5,0,1-0.3,1.3-0.7l5.9-9.6C41.9,66.1,41.7,65.1,40.9,64.7z M76.4,64.5 l-9.6-5.9c-0.7-0.4-1.7-0.2-2.1,0.5c-0.4,0.7-0.2,1.7,0.5,2.1l9.6,5.9c0.3,0.1,0.5,0.2,0.8,0.2c0.5,0,1-0.3,1.3-0.7 C77.3,65.9,77.1,64.9,76.4,64.5z M23.6,35.5l9.6,5.9c0.3,0.2,0.5,0.2,0.8,0.2c0.5,0,1-0.3,1.3-0.7c0.4-0.7,0.2-1.7-0.5-2.1l-9.6-5.9 c-0.7-0.4-1.7-0.2-2.1,0.5C22.7,34.1,22.9,35.1,23.6,35.5z M65.1,41.8c0.3,0.5,0.8,0.8,1.3,0.8c0.3,0,0.5-0.1,0.7-0.2l9.9-5.4 c0.7-0.4,1-1.3,0.6-2.1c-0.4-0.7-1.3-1-2.1-0.6l-9.9,5.4C65,40.1,64.7,41,65.1,41.8z M34.9,58.2c-0.4-0.8-1.3-1-2.1-0.6L22.8,63 c-0.7,0.4-1,1.3-0.6,2.1c0.3,0.5,0.8,0.8,1.3,0.8c0.3,0,0.5-0.1,0.7-0.2l9.9-5.4C35,59.9,35.3,59,34.9,58.2z M60.3,65.8 c-0.4-0.7-1.3-1-2.1-0.6c-0.7,0.4-1,1.3-0.6,2.1l5.4,9.9c0.3,0.5,0.8,0.8,1.3,0.8c0.2,0,0.5-0.1,0.7-0.2c0.7-0.4,1-1.3,0.6-2.1 L60.3,65.8z M39.7,34.2C40,34.8,40.5,35,41,35c0.2,0,0.5-0.1,0.7-0.2c0.7-0.4,1-1.3,0.6-2.1L37,22.8c-0.4-0.7-1.3-1-2.1-0.6 c-0.7,0.4-1,1.3-0.6,2.1L39.7,34.2z M61.3,50c0-6.2-5-11.3-11.3-11.3c-6.2,0-11.3,5.1-11.3,11.3c0,6.2,5,11.3,11.3,11.3 C56.2,61.3,61.3,56.2,61.3,50z"></path> </svg>