<svg width="24" height="25" viewBox="0 0 24 25" fill="none" xmlns="http://www.w3.org/2000/svg">
<path d="M7.85375 0.046875C9.2625 0.046875 10.5656 0.235406 11.763 0.612471C12.9839 0.965968 14.0288 1.51978 14.8975 2.27391C15.7662 3.02804 16.4471 3.98248 16.9402 5.13724C17.4332 6.26844 17.6798 7.62351 17.6798 9.20246C17.6798 10.7107 17.4684 12.0304 17.0458 13.1616C16.6232 14.2928 16.0245 15.2473 15.2497 16.025C14.4749 16.7791 13.5357 17.3447 12.4322 17.7218C11.3521 18.0988 10.143 18.2874 8.80466 18.2874C7.79506 18.2874 6.85589 18.1342 5.98717 17.8278V22.6354C5.98717 23.2958 5.37671 23.8373 4.86017 23.908C4.34363 24.0022 3.81535 24.0494 3.27533 24.0494C2.75879 24.0494 2.28921 24.014 1.86659 23.9433C1.46744 23.8726 1.127 23.7312 0.845247 23.5191C0.563498 23.307 0.352188 23.0124 0.211314 22.6354C0.0704391 22.2819 0 21.8105 0 21.2214V4.2535C0 3.6172 0.129136 3.09874 0.387406 2.69811C0.669155 2.29748 1.04482 1.93219 1.5144 1.60226C2.24225 1.13093 3.1462 0.75387 4.22624 0.471072C5.30627 0.188273 6.51545 0.046875 7.85375 0.046875ZM7.92419 13.5505C10.3425 13.5505 11.5517 12.1011 11.5517 9.20246C11.5517 7.69421 11.2465 6.5748 10.636 5.84424C10.049 5.11368 9.19206 4.74839 8.06506 4.74839C7.61896 4.74839 7.21982 4.80731 6.86763 4.92514C6.51545 5.01941 6.21022 5.13724 5.95195 5.27864V13.0556C6.2337 13.197 6.53893 13.3148 6.86763 13.4091C7.19634 13.5034 7.54852 13.5505 7.92419 13.5505Z" fill="#373737"/>
<ellipse cx="20.5758" cy="21.0154" rx="2.89602" ry="2.9068" fill="#FE1C64"/>
</svg>
