<?xml version="1.0" encoding="UTF-8"?><svg id="UNCX_Network" xmlns="http://www.w3.org/2000/svg" xmlns:xlink="http://www.w3.org/1999/xlink" viewBox="0 0 993.32 992.33"><defs><style>.cls-1{fill:url(#linear-gradient-2);}.cls-2{fill:#fff;}.cls-3{fill:url(#linear-gradient-3);}.cls-4{fill:url(#linear-gradient);}</style><linearGradient id="linear-gradient" x1="0" y1="496.17" x2="992.33" y2="496.17" gradientUnits="userSpaceOnUse"><stop offset="0" stop-color="#00c68d"/><stop offset="1" stop-color="#00f847"/></linearGradient><linearGradient id="linear-gradient-2" x1="425.7" y1="448.27" x2="410.13" y2="536.61" gradientUnits="userSpaceOnUse"><stop offset="0" stop-color="#00c68d"/><stop offset="1" stop-color="#00f847"/></linearGradient><linearGradient id="linear-gradient-3" x1="278.51" y1="865.18" x2="772.3" y2="685.45" gradientUnits="userSpaceOnUse"><stop offset="0" stop-color="#00f847"/><stop offset="1" stop-color="#fff"/></linearGradient></defs><g id="uncx-token-logo"><path id="background" class="cls-4" d="m992.33,496.17c0,147.59-64.4,280.09-166.67,370.98-4.19,3.74-8.5,7.41-12.82,10.99-76.73,63.69-173.03,104.73-278.52,112.75-12.59.96-25.28,1.44-38.16,1.44-65.1,0-127.29-12.56-184.24-35.35C129.15,883.83,0,705.09,0,496.17,0,222.15,222.18,0,496.17,0c245.45,0,449.25,178.17,489.1,412.21,4.63,27.29,7.06,55.35,7.06,83.96Z"/><path id="body" class="cls-2" d="m985.26,412.21c-18.73-8.63-39.44-2.01-60.95,5.43,6.9-13.84,31.19-40.33,17.13-50.85-33.69-25.12-84.31-43.78-142.03-34.58,6.01-13.77,34.9-41.83,15.5-52.51-37.14-20.39-99.43-43.98-156.06-14.51l-6.58-76.96c-.51-5.5-6.78-8.31-11.19-5.05l-88.56,65.45h0l-23.46-42.6c-2.62-4.95-9.62-4.95-12.34,0l-29.82,54.23c-31.26,10.1-59.86,27.52-84.34,53.79L116.73,202.11c-7.16-2.78-12.43,6.9-6.23,11.38,77.18,55.58,233.91,168.3,235.19,169.29,0,.06-159.96,252.09-159.96,252.16-24.67,39.47-11.41,72.96,29.72,94.34,23.2,11.98,49.31,16.4,75.01,13.77,36.11-3.74,107.7-16.65,217.23-53.05h.06c2.01-.58,51.2-14.13,78.84-49.95.13-.35.42-.58.58-.99,11.35-16.27,22.08-66.7-.16-115.72-3-6.42,3.77-13.2,10.32-10.1,2.08,1.02,4.31,2.11,6.65,3.29,1.09.54,2.24,1.12,3.39,1.73,35.67,18.31,93.43,56.57,135.23,124.88,34.08,55.69,71.91,134.38,83.05,224.02,122.83-103.16,192.3-281.7,159.6-454.94Z"/><path id="eye" class="cls-1" d="m369.55,526.5l82.13-73.65s25.62,35.05-6.99,65.36c0,0-32.6,28.89-75.14,8.29Z"/><path id="neck" class="cls-3" d="m825.67,867.15c-4.19,3.74-8.5,7.41-12.82,10.99-76.73,63.69-173.03,104.73-278.52,112.75-12.59.96-25.28,1.44-38.16,1.44-65.1,0-127.29-12.56-184.24-35.35,210.68-23.55,239.89-191.95,195.78-266.99h.03c2.01-.58,51.2-14.13,78.88-49.95.13-.35.38-.58.54-.99,11.38-16.27,22.12-66.7-.16-115.72-3-6.42,3.8-13.2,10.35-10.1,2.08,1.02,4.28,2.11,6.62,3.29,1.12.54,2.24,1.12,3.42,1.73,35.64,18.31,93.42,56.57,135.22,124.86,34.07,55.7,71.91,134.39,83.06,224.03Z"/></g></svg>