<?xml version="1.0" encoding="UTF-8"?> <!-- Generator: Adobe Illustrator 24.2.1, SVG Export Plug-In . SVG Version: 6.00 Build 0) --> <svg xmlns="http://www.w3.org/2000/svg" xmlns:xlink="http://www.w3.org/1999/xlink" id="Layer_1" x="0px" y="0px" viewBox="0 0 1369.1 204" style="enable-background:new 0 0 1369.1 204;" xml:space="preserve"> <style type="text/css"> .st0{fill:#222222;} </style> <g> <g> <path class="st0" d="M326.5,204c-4,0-7.4-0.9-10.2-2.8c-2.8-1.9-4.8-4.4-5.9-7.7l4.9-2.8c1.7,5.2,5.5,7.7,11.4,7.7 c2.9,0,5.2-0.6,6.7-1.8c1.5-1.2,2.3-2.8,2.3-4.8c0-2-0.8-3.6-2.3-4.6c-1.5-1-4.1-2.1-7.7-3.2c-1.8-0.6-3.2-1-4.1-1.4 c-0.9-0.3-2.1-0.9-3.5-1.6s-2.5-1.4-3.1-2.2c-0.7-0.8-1.3-1.7-1.9-3c-0.5-1.2-0.8-2.6-0.8-4.1c0-3.7,1.3-6.6,3.9-8.8 c2.6-2.2,5.8-3.3,9.5-3.3c3.4,0,6.3,0.9,8.8,2.6s4.4,4,5.6,6.8l-4.8,2.7c-1.8-4.4-5.1-6.6-9.7-6.6c-2.3,0-4.2,0.6-5.6,1.7 c-1.4,1.1-2.1,2.7-2.1,4.6c0,1.9,0.7,3.3,2,4.3c1.3,1,3.7,2,7,3.1c1.2,0.4,2,0.6,2.5,0.8c0.5,0.2,1.3,0.4,2.3,0.9 c1,0.4,1.8,0.7,2.3,1c0.5,0.2,1.1,0.6,2,1c0.8,0.4,1.5,0.9,1.9,1.3c0.4,0.4,0.9,0.9,1.4,1.5s0.9,1.2,1.2,1.8 c0.2,0.6,0.5,1.3,0.6,2.1c0.2,0.8,0.3,1.6,0.3,2.5c0,3.7-1.4,6.7-4.1,8.9C334.5,202.9,330.9,204,326.5,204z"></path> <path class="st0" d="M463.9,197.8h19.8v5.4h-25.5v-42.7h25.2v5.4h-19.5V179h18v5.3h-18V197.8z"></path> <path class="st0" d="M621,204c-6.5,0-11.8-2.1-16-6.4c-4.2-4.3-6.3-9.5-6.3-15.7c0-6.2,2.1-11.5,6.3-15.7c4.2-4.3,9.5-6.4,16-6.4 c3.9,0,7.5,0.9,10.8,2.8c3.3,1.9,5.8,4.4,7.7,7.6l-4.9,2.9c-1.2-2.4-3-4.2-5.5-5.6c-2.4-1.4-5.1-2.1-8-2.1c-4.9,0-8.9,1.6-12,4.8 c-3.1,3.2-4.7,7.1-4.7,11.9c0,4.7,1.6,8.7,4.7,11.8c3.1,3.2,7.1,4.8,12,4.8c2.9,0,5.6-0.7,8-2.1c2.4-1.4,4.2-3.3,5.5-5.6l4.9,2.8 c-1.8,3.2-4.3,5.7-7.6,7.6C628.5,203,624.9,204,621,204z"></path> <path class="st0" d="M783.4,199.9c-3,2.7-6.8,4.1-11.5,4.1c-4.7,0-8.6-1.4-11.6-4.1c-3-2.7-4.5-6.4-4.5-11v-28.4h5.7v28.1 c0,3,0.9,5.4,2.7,7.2c1.8,1.8,4.4,2.7,7.7,2.7c3.3,0,5.9-0.9,7.7-2.7c1.8-1.8,2.7-4.2,2.7-7.2v-28.1h5.6v28.4 C787.9,193.4,786.4,197.1,783.4,199.9z"></path> <path class="st0" d="M932.4,203.2l-9.6-16.3h-10.1v16.3h-5.7v-42.7h17.1c3.7,0,6.8,1.3,9.4,3.9c2.6,2.6,3.9,5.7,3.9,9.4 c0,2.8-0.8,5.3-2.5,7.6c-1.6,2.3-3.8,3.9-6.4,4.8l10.1,17.1H932.4z M912.8,165.8v15.9h11.4c2.1,0,3.9-0.8,5.4-2.3 c1.5-1.6,2.2-3.4,2.2-5.6c0-2.2-0.7-4.1-2.2-5.6c-1.5-1.5-3.3-2.3-5.4-2.3H912.8z"></path> <path class="st0" d="M1055,160.5h5.7v42.7h-5.7V160.5z"></path> <path class="st0" d="M1207.7,160.5v5.4h-12.6v37.3h-5.6v-37.3h-12.6v-5.4H1207.7z"></path> <path class="st0" d="M1355.7,160.5l-15.1,25.4v17.3h-5.7v-17.3l-15.1-25.4h6.3l11.6,20l11.6-20H1355.7z"></path> </g> <g> <polygon class="st0" points="169.5,1.9 169.5,33.7 158.9,33.7 158.9,1.9 127.1,1.9 127.1,33.7 116.5,33.7 116.5,1.9 84.8,1.9 84.8,33.7 74.2,33.7 74.2,1.9 42.4,1.9 42.4,33.7 31.8,33.7 31.8,1.9 0,1.9 0,33.7 0,65.5 201.3,65.5 201.3,33.7 201.3,1.9 "></polygon> <polygon class="st0" points="201.3,76.1 0,76.1 0,203.2 201.3,203.2 201.3,107.8 "></polygon> </g> <g> <g> <path class="st0" d="M342.5,106.3c-9.9,0-18.2-2.2-25.1-6.7c-6.9-4.5-11.7-10.6-14.4-18.5l14.5-8.5c4.1,11.5,12.6,17.3,25.5,17.3 c6.3,0,11.1-1.2,14.3-3.7c3.2-2.5,4.8-5.7,4.8-9.7c0-4.2-1.7-7.4-5.1-9.6c-3.4-2.2-9.5-4.6-18.2-7.3c-4.9-1.5-8.8-2.8-11.9-4.1 c-3-1.3-6.2-3.1-9.6-5.3c-3.4-2.3-5.9-5.1-7.5-8.6c-1.7-3.4-2.5-7.4-2.5-12c0-9.1,3.2-16.3,9.7-21.6c6.4-5.3,14.2-8,23.3-8 c8.2,0,15.4,2,21.5,6c6.2,4,10.9,9.5,14.2,16.6l-14.2,8.2c-4.3-9.6-11.5-14.4-21.5-14.4c-4.9,0-8.8,1.1-11.7,3.4 c-2.9,2.3-4.4,5.4-4.4,9.3c0,3.8,1.5,6.8,4.5,9c3,2.2,8.4,4.5,16.2,7c3.9,1.3,6.8,2.2,8.6,2.9c1.8,0.6,4.3,1.6,7.6,3 c3.3,1.4,5.7,2.7,7.4,4.1c1.7,1.4,3.4,3.1,5.3,5.1s3.2,4.4,4,7c0.8,2.6,1.2,5.6,1.2,8.9c0,9.3-3.3,16.6-10,22 C362.1,103.6,353.4,106.3,342.5,106.3z"></path> <path class="st0" d="M468.1,1.9V18h-28.9v86.4h-16.8V18h-29V1.9H468.1z"></path> <path class="st0" d="M550.7,104.4L529,67.1h-19.9v37.4h-16.8V1.9h41c9.2,0,17,3.2,23.4,9.6c6.4,6.4,9.6,14.2,9.6,23.4 c0,6.5-1.9,12.5-5.6,17.9c-3.8,5.4-8.7,9.4-14.7,11.8l23.3,39.8H550.7z M509.1,17.7V52h24.2c4.5,0,8.3-1.7,11.4-5 c3.1-3.3,4.7-7.4,4.7-12.2c0-4.8-1.6-8.8-4.7-12.2c-3.1-3.3-6.9-5-11.4-5H509.1z"></path> <path class="st0" d="M678.8,90.9c-10.3,10.3-22.9,15.5-37.7,15.5c-14.8,0-27.4-5.1-37.7-15.5C593,80.6,587.9,68,587.9,53.2 c0-14.8,5.2-27.4,15.5-37.7C613.7,5.2,626.2,0,641.1,0c14.8,0,27.4,5.2,37.7,15.5c10.3,10.3,15.5,22.9,15.5,37.7 C694.2,68,689.1,80.6,678.8,90.9z M615.2,79.5c7,7,15.6,10.5,25.9,10.5s18.9-3.5,25.9-10.5c7-7,10.5-15.7,10.5-26.3 s-3.5-19.3-10.5-26.3c-7-7-15.6-10.5-25.9-10.5s-18.9,3.5-25.9,10.5c-7,7-10.5,15.7-10.5,26.3S608.2,72.5,615.2,79.5z"></path> <path class="st0" d="M782.9,1.9h16.8v102.5h-13.2l-48.3-69.6v69.6h-16.8V1.9h13.2l48.3,69.6V1.9z"></path> <path class="st0" d="M931.7,51.4v7c0,14.1-4.6,25.6-13.9,34.5c-9.3,8.9-21.4,13.4-36.3,13.4c-15.8,0-28.9-5.1-39.2-15.4 c-10.3-10.3-15.5-22.9-15.5-37.8c0-14.8,5.2-27.4,15.5-37.7C852.6,5.2,865.3,0,880.6,0c9.6,0,18.3,2.2,26.2,6.6 c7.9,4.4,14.1,10.3,18.5,17.7l-14.5,8.3c-2.7-4.9-6.8-8.8-12.2-11.8c-5.4-3-11.4-4.5-18-4.5c-10.7,0-19.6,3.5-26.5,10.5 c-6.9,7-10.4,15.8-10.4,26.4s3.5,19.3,10.5,26.2c7,6.9,16.1,10.4,27.5,10.4c9.1,0,16.5-2.1,22.2-6.4s9.4-9.9,10.9-17.1h-34.3 V51.4H931.7z"></path> <path class="st0" d="M1019.6,1.9h16.8v102.5h-16.8V60.1h-43.9v44.4h-16.8V1.9h16.8v42h43.9V1.9z"></path> <path class="st0" d="M1154.4,90.9c-10.3,10.3-22.9,15.5-37.7,15.5c-14.8,0-27.4-5.1-37.7-15.5c-10.3-10.3-15.5-22.9-15.5-37.7 c0-14.8,5.2-27.4,15.5-37.7C1089.3,5.2,1101.9,0,1116.7,0c14.8,0,27.4,5.2,37.7,15.5c10.3,10.3,15.5,22.9,15.5,37.7 C1169.9,68,1164.7,80.6,1154.4,90.9z M1090.9,79.5c7,7,15.6,10.5,25.9,10.5s18.9-3.5,25.9-10.5c7-7,10.5-15.7,10.5-26.3 s-3.5-19.3-10.5-26.3c-7-7-15.6-10.5-25.9-10.5s-18.9,3.5-25.9,10.5c-7,7-10.5,15.7-10.5,26.3S1083.9,72.5,1090.9,79.5z"></path> <path class="st0" d="M1213.8,88.3h41.7v16.1H1197V1.9h16.8V88.3z"></path> <path class="st0" d="M1320,1.9c14.1,0,25.8,4.9,35.1,14.8c9.3,9.9,14,22,14,36.5c0,14.4-4.7,26.5-14,36.4 c-9.3,9.9-21,14.9-35.1,14.9h-40.3V1.9H1320z M1320,88.3c9.7,0,17.6-3.3,23.7-10c6.1-6.6,9.2-15,9.2-25.2 c0-10.3-3.1-18.7-9.2-25.3c-6.1-6.6-14-9.9-23.7-9.9h-23.4v70.3H1320z"></path> </g> </g> </g> </svg>
