<svg class="t-sociallinks__svg" role="presentation" width="32px" height="32px" viewBox="0 0 100 100" fill="none" xmlns="http://www.w3.org/2000/svg"><path fill-rule="evenodd" clip-rule="evenodd" d="M50 100c27.6142 0 50-22.3858 50-50S77.6142 0 50 0 0 22.3858 0 50s22.3858 50 50 50ZM26.2268 34.1813c.3042-.9738.9636-1.693 1.8568-2.0249l.4151-.1543 21.4794-.0018c21.3404-.0017 21.4819-.0009 21.8807.1335.9642.3248 1.6814 1.1482 1.9797 2.2727l.0944.3556-1.7711 1.2707c-2.462 1.7666-6.8447 4.9166-8.8523 6.3624-.925.6662-2.2783 1.639-3.0072 2.1619-2.1029 1.5081-4.2894 3.0785-5.891 4.2312-3.6493 2.6264-4.3577 3.1288-4.4113 3.1288-.0541 0-.817-.5414-4.5039-3.1961-1.6149-1.1627-3.4655-2.4914-5.7994-4.1637-.7296-.5227-2.1661-1.5561-3.1924-2.2964-1.0262-.7404-2.4421-1.7593-3.1465-2.2642-.7044-.5051-2.3496-1.6873-3.656-2.6273s-2.646-1.9002-2.9769-2.1338c-.667-.4708-.675-.4878-.4981-1.0543Zm-.1497 27.1823c-.0616.0397-.0771-2.244-.0771-11.3267 0-6.257.0122-11.3764.0271-11.3764.015 0 1.063.7458 2.3291 1.6574 2.2612 1.628 3.4539 2.4857 6.7132 4.8273 2.1704 1.5593 4.0585 2.9159 5.6761 4.0785.7296.5244 1.3265.9876 1.3265 1.0293 0 .0718-.8103.6465-3.9486 2.8008-.7465.5124-2.0931 1.4401-2.9923 2.0616-.8992.6215-3.1064 2.1429-4.9049 3.3809-1.7984 1.238-3.4504 2.3784-3.6709 2.5342-.2206.1559-.4357.3058-.4782.3331Zm43.234-19.3639c.6277-.4485 1.9187-1.381 2.8688-2.0722.9502-.6912 1.7483-1.259 1.7738-1.2619.0255-.0028.0463 5.1143.0463 11.3713 0 9.0827-.0155 11.3664-.0771 11.3267-.0424-.0273-.2576-.1768-.4782-.3323-.2205-.1554-1.0951-.7591-1.9434-1.3415-.8483-.5824-1.6812-1.1582-1.8509-1.2795-.1697-.1213-.7388-.5155-1.2648-.8759-.526-.3604-1.3172-.9043-1.7583-1.2086-.4412-.3043-2.1348-1.4711-3.7635-2.593-4.735-3.2613-4.9358-3.4028-4.9358-3.4788 0-.0759.2206-.2386 4.0412-2.9806 1.3064-.9376 3.2359-2.3243 4.2879-3.0815 1.0519-.7573 2.4262-1.7437 3.054-2.1922ZM37.8152 57.1366c.3609-.2411 1.7297-1.1886 4.8121-3.3308 1.2215-.849 2.2627-1.5349 2.3136-1.5242.0509.0107 1.0504.7092 2.2211 1.5523 1.1706.8431 2.2361 1.5743 2.3676 1.625.3044.1171.6365.117.9414-.0003.1318-.0507 1.1964-.7809 2.3658-1.6228 1.1693-.8418 2.1572-1.5435 2.1951-1.5594.0604-.0253 1.5111.9576 5.8267 3.9476 1.1431.7919 2.7209 1.8798 5.9537 4.1051.9502.6541 2.9214 2.014 4.3805 3.022l2.653 1.8328-.0051.2599c-.0072.3723-.3476 1.0784-.7463 1.5482-.3863.4549-1.0056.8296-1.5552.9408C71.322 67.9767 63.8578 68 50 68c-13.8578 0-21.322-.0233-21.5392-.0672-.5496-.1112-1.1689-.4859-1.5552-.9408-.3741-.4409-.7126-1.118-.7618-1.5243l-.0316-.2603 1.656-1.14c.9108-.627 2.2112-1.5239 2.8899-1.9932 3.6716-2.539 6.8851-4.7559 7.1571-4.9376Z" fill="#222222"></path></svg>
