
<svg xmlns="http://www.w3.org/2000/svg" xmlns:xlink="http://www.w3.org/1999/xlink" id="Layer_1" x="0px" y="0px" viewBox="0 0 100 100" style="enable-background:new 0 0 100 100;" xml:space="preserve"> <style type="text/css"> .st0{fill:#FFFFFF;} </style> <g> <path class="st0" d="M-185,38.3c-0.2-0.6-0.8-1-1.5-0.8l0,0l-13.3,4.1l5.3-10.2c0.3-0.6,0.1-1.3-0.5-1.6c-0.6-0.3-1.3-0.1-1.6,0.5 l-6.5,12.3l-8,2.5l-10-7.3v-8.4l9.8-9.8c0.5-0.4,0.6-1.1,0.2-1.7c-0.4-0.5-1.1-0.6-1.7-0.2c-0.1,0.1-0.2,0.1-0.2,0.2l-8.1,8.1V12 c0-0.7-0.5-1.2-1.2-1.2c-0.7,0-1.2,0.5-1.2,1.2v14l-8.1-8c-0.4-0.5-1.2-0.5-1.7-0.1s-0.5,1.2-0.1,1.7c0,0,0,0,0.1,0.1l9.8,9.8v8.4 l-10,7.3l-8-2.5l-6.4-12.3c-0.3-0.6-1-0.8-1.6-0.5c-0.6,0.3-0.8,1-0.5,1.6l5.4,10.2l-13.3-4.1c-0.6-0.2-1.3,0.1-1.5,0.7 c-0.2,0.6,0.1,1.3,0.7,1.5h0.1l13.3,4.2l-10.2,5.4c-0.6,0.3-0.8,1-0.5,1.6c0.3,0.6,1,0.8,1.6,0.5l12.3-6.5l8,2.5l3.8,11.7l-5,6.8 l-13.8,2c-0.7,0.1-1.1,0.7-1,1.4c0.1,0.7,0.7,1.1,1.4,1l11.4-1.7l-8.3,11.2c-0.4,0.5-0.2,1.3,0.3,1.6c0.5,0.3,1.2,0.2,1.6-0.2 l8.2-11.3l1.7,11.4c0.1,0.6,0.6,1,1.2,1h0.2c0.6-0.1,1.1-0.7,1-1.4l0,0l-2.1-13.7l5-6.8h12.3l5,6.8l-2.1,13.7 c-0.1,0.6,0.3,1.2,1,1.3l0,0h0.2c0.6,0,1.1-0.4,1.2-1l1.8-11.3l8.3,11.3c0.4,0.5,1.2,0.6,1.7,0.2s0.6-1.1,0.2-1.6l-8.3-11.2 l11.4,1.7c0.7,0.1,1.3-0.4,1.4-1c0.1-0.7-0.4-1.3-1-1.4l-13.7-2l-5-6.7l3.8-11.8l8.1-2.5l12.3,6.5c0.6,0.3,1.3,0.1,1.6-0.5 s0.1-1.3-0.5-1.6l-10.2-5.3l13.3-4.2C-185.2,39.6-184.8,38.9-185,38.3z M-216.4,58.2h-11.8l-3.7-11.3l9.6-7l9.6,7L-216.4,58.2z"></path> </g> <path class="st0" d="M58.2,78.3c0.4-0.7,0.2-1.6-0.5-2.1l-6.2-3.9l0-8.3l9.4,5.2l0.3-11l7.3,4.2l0.3,7.3c0,0.3,0.1,0.5,0.2,0.7 c0.3,0.5,0.8,0.8,1.4,0.8c0.8,0,1.5-0.7,1.5-1.6l-0.2-5.4l4.8,2.8c0.7,0.4,1.7,0.2,2.1-0.6c0.4-0.7,0.2-1.7-0.6-2.1l-4.8-2.8 l4.8-2.5c0.7-0.4,1-1.3,0.6-2c-0.4-0.7-1.3-1-2-0.6l-6.5,3.4l-7.2-4.1l9.2-5.6l-9.3-5.8l7.3-4.2l6.5,3.4c0.7,0.4,1.7,0.1,2-0.6 c0.4-0.7,0.1-1.7-0.6-2.1l-4.8-2.5l4.8-2.8c0.7-0.4,1-1.3,0.6-2.1c-0.4-0.7-1.3-1-2.1-0.6l-4.8,2.8l0.2-5.4c0-0.8-0.6-1.5-1.5-1.6 c-0.8,0-1.5,0.6-1.6,1.5l-0.3,7.3l-7.2,4.1l-0.2-10.8l-9.7,5.2l0-8.4l6.2-3.9c0.7-0.4,0.9-1.4,0.5-2.1c-0.4-0.7-1.4-0.9-2.1-0.5 l-4.6,2.9l0-5.6c0-0.8-0.7-1.5-1.5-1.5c-0.8,0-1.5,0.7-1.5,1.5l0,5.6l-4.6-2.9c-0.7-0.4-1.6-0.2-2.1,0.5c-0.3,0.5-0.3,1.1,0,1.6 c0.1,0.2,0.3,0.4,0.5,0.5l6.2,3.9l0,8.3L39,30.8l-0.3,11l-7.3-4.2l-0.3-7.3c0-0.8-0.7-1.5-1.6-1.5c-0.8,0-1.5,0.7-1.5,1.6l0.2,5.4 L23.5,33c-0.7-0.4-1.7-0.2-2.1,0.6c-0.3,0.5-0.3,1.1,0,1.5c0.1,0.2,0.3,0.4,0.6,0.6l4.8,2.8L22,40.9c-0.7,0.4-1,1.3-0.6,2 c0,0,0,0,0,0.1c0.4,0.7,1.3,1,2,0.6l6.5-3.4l7.2,4.1l-9.2,5.6l9.3,5.8l-7.3,4.2l-6.5-3.4c-0.7-0.4-1.7-0.1-2,0.6 c-0.3,0.5-0.2,1,0,1.5c0.1,0.2,0.3,0.4,0.6,0.6l4.8,2.5L22,64.4c-0.7,0.4-1,1.3-0.6,2.1c0.4,0.7,1.3,1,2.1,0.6l4.8-2.8l-0.2,5.4 c0,0.3,0.1,0.6,0.2,0.8c0.3,0.4,0.7,0.7,1.3,0.8c0.8,0,1.5-0.6,1.6-1.5l0.3-7.3l7.2-4.1l0.2,10.8l9.7-5.2l0,8.4l-6.2,3.9 c-0.7,0.4-0.9,1.3-0.5,2c0,0,0,0,0,0.1c0.4,0.7,1.4,0.9,2.1,0.5l4.6-2.9l0,5.6c0,0.3,0.1,0.5,0.2,0.8c0.3,0.5,0.8,0.8,1.3,0.8 c0.8,0,1.5-0.7,1.5-1.5l0-5.6l4.6,2.9C56.8,79.3,57.8,79.1,58.2,78.3z M41.9,35.8l6.6,3.6l0,7.9l-6.8-3.9L41.9,35.8z M33.7,49.9 l6.4-3.9l6.9,4l-6.8,3.9L33.7,49.9z M41.8,64.1l-0.2-7.5l6.9-4l0,7.9L41.8,64.1z M58.1,64.2l-6.6-3.6l0-7.9l6.8,3.9L58.1,64.2z M66.3,50.1L59.9,54L53,50l6.8-3.9L66.3,50.1z M58.2,35.9l0.2,7.5l-6.9,4l0-7.9L58.2,35.9z"></path> </svg> 