
<svg xmlns="http://www.w3.org/2000/svg" xmlns:xlink="http://www.w3.org/1999/xlink" id="Layer_1" x="0px" y="0px" viewBox="0 0 100 100" style="enable-background:new 0 0 100 100;" xml:space="preserve"> <style type="text/css"> .st0{fill:#FFFFFF;} </style> <g> <path class="st0" d="M60,60.5c-4.3,4.3-3,10.2-3,10.2s5.9,1.3,10.1-2.9s5.2-12.4,5.2-12.4S64.2,56.3,60,60.5z M51.6,57.8L51.6,57.8 c9.1-1.1,19.6-9.8,12.6-31.4c0,0-3.1,0.3-8.4,5.1C53.9,25,50,20.4,50,20.4s-4,4.6-5.8,11.1c-5.3-4.8-8.4-5.1-8.4-5.1 c-7,21.7,3.6,30.3,12.7,31.4 M27.7,55.4c0,0,0.9,8.1,5.2,12.4C37.1,72,43,70.7,43,70.7s1.3-5.9-2.9-10.1 C35.8,56.3,27.7,55.4,27.7,55.4z"></path> <path class="st0" d="M50,54.2c-0.9,0-1.5,0.7-1.5,1.5V78c0,0.9,0.7,1.5,1.5,1.5s1.5-0.7,1.5-1.5V55.8C51.5,54.9,50.8,54.2,50,54.2z "></path> </g> </svg> 