<svg class="t-sociallinks__svg" role="presentation" width="32px" height="32px" viewBox="0 0 100 100" fill="none" xmlns="http://www.w3.org/2000/svg"><path fill-rule="evenodd" clip-rule="evenodd" d="M52.078 99.958C78.728 98.868 100 76.918 100 50c0-27.614-22.386-50-50-50S0 22.386 0 50s22.386 50 50 50l.368-.001.335.001c.432 0 .894-.015 1.375-.042Zm0 0c3.828-.216 8.81-1.186 8.81-1.186l-.053-2.99s.05-5.839.05-11.388c0-3.873-1.327-6.407-2.818-7.688 9.248-1.027 18.954-4.537 18.954-20.484 0-4.532-1.607-8.238-4.268-11.14.427-1.05 1.852-5.271-.413-10.986 0 0-3.479-1.116-11.405 4.256-3.316-.92-6.867-1.381-10.392-1.397-3.53.016-7.082.476-10.393 1.397-7.93-5.372-11.416-4.256-11.416-4.256-2.258 5.716-.833 9.937-.407 10.986-2.655 2.902-4.272 6.607-4.272 11.14 0 15.907 9.69 19.469 18.909 20.517-1.186 1.038-2.258 2.867-2.635 5.55-2.366 1.062-8.378 2.894-12.081-3.45 0 0-2.193-3.984-6.358-4.278 0 0-4.055-.052-.286 2.523 0 0 2.722 1.277 4.609 6.073 0 0 2.436 8.073 13.984 5.565.01 1.884.026 3.515.038 4.77.01 1.053.018 1.84.018 2.29l.01 2.889c3.232.84 6.617 1.3 10.105 1.328a50.99 50.99 0 0 0 1.71-.041Z" fill="#222222"></path></svg>
