
<svg xmlns="http://www.w3.org/2000/svg" xmlns:xlink="http://www.w3.org/1999/xlink" id="Layer_1" x="0px" y="0px" viewBox="0 0 100 100" style="enable-background:new 0 0 100 100;" xml:space="preserve"> <style type="text/css"> .st0{fill:#FFFFFF;} .st1{fill:none;stroke:#FFFFFF;stroke-width:3;stroke-miterlimit:10;} .st2{fill:none;stroke:#FFFFFF;stroke-width:3;stroke-linecap:round;stroke-miterlimit:10;} </style> <g> <path class="st0" d="M37.2,68.8v-5.5L50,50c2.9-3,4.3-5.5,4.3-7.5c0-1.5-0.5-2.6-1.4-3.5c-0.9-0.9-2.1-1.3-3.5-1.3 c-2.8,0-4.9,1.5-6.3,4.4l-6.2-3.6c1.2-2.6,2.9-4.5,5.1-5.9c2.2-1.4,4.7-2,7.3-2c3.4,0,6.3,1.1,8.7,3.2c2.4,2.1,3.7,5,3.7,8.6 c0,3.9-2.1,7.9-6.2,12l-7.4,7.4h14.1v7.1H37.2z"></path> </g> <g> <circle class="st1" cx="50" cy="50" r="41.3"></circle> <line class="st2" x1="8.7" y1="50" x2="21.9" y2="50"></line> <line class="st2" x1="78.1" y1="50" x2="91.3" y2="50"></line> </g> </svg> 