
<svg xmlns="http://www.w3.org/2000/svg" xmlns:xlink="http://www.w3.org/1999/xlink" id="Layer_1" x="0px" y="0px" viewBox="0 0 100 100" style="enable-background:new 0 0 100 100;" xml:space="preserve"> <style type="text/css"> .st0{fill:#FFFFFF;} .st1{fill:none;stroke:#FFFFFF;stroke-width:3;stroke-miterlimit:10;} .st2{fill:none;stroke:#FFFFFF;stroke-width:3;stroke-linecap:round;stroke-miterlimit:10;} </style> <g> <path class="st0" d="M50.3,44.9c3.6,0,6.7,1.1,9.1,3.2c2.5,2.2,3.7,5.2,3.7,9c0,3.9-1.3,6.9-3.9,9.1c-2.6,2.2-5.8,3.3-9.5,3.3 c-3,0-5.7-0.7-8.1-2c-2.3-1.4-4-3.4-5-6l6.3-3.7c0.9,3,3.2,4.5,6.8,4.5c1.9,0,3.4-0.5,4.4-1.4c1.1-0.9,1.6-2.2,1.6-3.7 c0-1.5-0.5-2.8-1.6-3.7c-1-0.9-2.5-1.4-4.2-1.4H38.6l1.5-20.9h21.3v6.9H46.9l-0.5,6.8H50.3z"></path> </g> <g> <circle class="st1" cx="50" cy="50" r="41.3"></circle> <line class="st2" x1="8.7" y1="50" x2="21.9" y2="50"></line> <line class="st2" x1="78.1" y1="50" x2="91.3" y2="50"></line> </g> </svg> 