
<svg xmlns="http://www.w3.org/2000/svg" xmlns:xlink="http://www.w3.org/1999/xlink" id="Layer_1" x="0px" y="0px" viewBox="0 0 100 100" style="enable-background:new 0 0 100 100;" xml:space="preserve"> <style type="text/css"> .st0{fill:#FFFFFF;} .st1{fill:none;stroke:#FFFFFF;stroke-width:3;stroke-miterlimit:10;} .st2{fill:none;stroke:#FFFFFF;stroke-width:3;stroke-linecap:round;stroke-miterlimit:10;} </style> <g> <path class="st0" d="M50.5,43.4c3.9,0.1,7.1,1.4,9.5,3.8c2.4,2.4,3.7,5.5,3.7,9.3c0,3.8-1.3,7-3.8,9.4c-2.5,2.5-5.8,3.7-9.8,3.7 c-4,0-7.3-1.2-9.8-3.7c-2.5-2.4-3.8-5.6-3.8-9.4c0-2.9,0.7-5.4,2.2-7.6l11.7-17.7h8.5L50.5,43.4z M45.5,60.9 c1.2,1.1,2.7,1.7,4.5,1.7c1.8,0,3.3-0.6,4.5-1.7c1.2-1.1,1.8-2.6,1.8-4.5c0-1.8-0.6-3.3-1.8-4.4c-1.2-1.1-2.7-1.7-4.5-1.7 c-1.8,0-3.3,0.5-4.5,1.6c-1.2,1.1-1.8,2.6-1.8,4.4C43.7,58.3,44.3,59.8,45.5,60.9z"></path> </g> <g> <circle class="st1" cx="50" cy="50" r="41.3"></circle> <line class="st2" x1="8.7" y1="50" x2="21.9" y2="50"></line> <line class="st2" x1="78.1" y1="50" x2="91.3" y2="50"></line> </g> </svg> 