<svg class="t-sociallinks__svg" role="presentation" width="32px" height="32px" viewBox="0 0 100 100" fill="none" xmlns="http://www.w3.org/2000/svg"><path fill-rule="evenodd" clip-rule="evenodd" d="M50 100c27.614 0 50-22.386 50-50S77.614 0 50 0 0 22.386 0 50s22.386 50 50 50Zm19.091-63.636c2.046-.227 4.09-.682 5.909-1.591-1.364 2.045-2.954 3.863-5.228 5v1.364c0 13.636-10.227 29.09-29.09 29.09-5.909 0-11.137-1.59-15.682-4.545.909.227 1.59.227 2.5.227 4.773 0 9.318-1.59 12.727-4.318-4.545 0-8.181-2.955-9.545-7.046.455.227 1.137.227 1.818.227.907 0 1.814-.226 2.72-.453l.008-.002c-4.772-.909-8.182-5-8.182-10v-.227a8.196 8.196 0 0 0 4.546 1.364c-2.727-1.819-4.546-4.773-4.546-8.41 0-2.045.455-3.636 1.364-5.226 5.227 6.136 12.727 10.227 21.136 10.682-.227-.682-.227-1.364-.227-2.273A10.184 10.184 0 0 1 59.546 30c2.954 0 5.681 1.136 7.5 3.181 2.5-.454 4.545-1.362 6.59-2.5-.909 2.501-2.5 4.319-4.545 5.683Z" fill="#222222"></path></svg>
